# xmcd CD database file
#
# Track frame offsets:
#	150
#	17734
#	37666
#	57517
#	77567
#	89940
#	112094
#	137049
#	154530
#	173529
#	188839
#	205834
#	224373
#	243839
#
# Disc length: 3487 seconds
#
# Revision: 0
# Processed by: cddbd v1.5.2PL0 Copyright (c) Steve Scherf et al.
# Submitted via: CDex 1.70beta2
#
DISCID=b80d9d0e
DTITLE=Jan Allan and Jan Strinnholm - The Idea Of Sailing
DYEAR=2004
DGENRE=Jazz
TTITLE0=Internerancy III
TTITLE1=I Didn't Know What Time It Was
TTITLE2=Rebecca's Theme
TTITLE3=The Idea Of Sailing
TTITLE4=Maya
TTITLE5=Over The Rainbow
TTITLE6=Direction Home
TTITLE7=From A Summer's Waltz
TTITLE8=Devotion
TTITLE9=Spin
TTITLE10=Peter And The Squirrel
TTITLE11=Ida
TTITLE12=Bye Bye Blackbird
TTITLE13=Life
EXTD=YEAR: 2004
EXTT0=
EXTT1=
EXTT2=
EXTT3=
EXTT4=
EXTT5=
EXTT6=
EXTT7=
EXTT8=
EXTT9=
EXTT10=
EXTT11=
EXTT12=
EXTT13=
PLAYORDER=
